<svg width="1440" height="334" viewBox="0 0 1440 334" fill="none" xmlns="http://www.w3.org/2000/svg">
<g clip-path="url(#clip0_588_435)">
<path fill-rule="evenodd" clip-rule="evenodd" d="M1440 167.107L1391.85 0.093913H1228.33L1214.84 46.5535C1190.18 18.2324 1151.6 0 1108.24 0C1082.42 0 1061.48 53.7785 1061.48 120.123V126.898L991.628 0.093913H953.483L884.105 240.79H759.789C833.979 240.489 894.013 186.823 894.013 120.667C894.013 54.511 833.65 0.544696 759.168 0.544696C733.344 0.544696 712.402 54.3232 712.402 120.667C712.402 137.267 713.709 153.079 716.078 167.464L669.227 167.455C669.227 246.702 648.002 310.934 621.821 310.934C595.64 310.934 574.414 246.692 574.414 167.455C574.414 88.2172 595.64 23.976 621.821 23.976C639.115 23.976 654.246 52.0247 662.531 93.9044H688.703C676.571 38.5959 651.18 0.52513 621.83 0.52513C561.089 0.52513 508.407 37.2162 482.31 90.8922C469.925 37.2162 444.929 0.534522 416.105 0.534522C350.389 0.534522 294.124 43.4755 270.726 104.405C261.896 45.6621 205.349 0.347478 136.906 0.347478C111.044 0.347478 90.0822 54.1354 90.0822 120.479C90.0822 137.079 91.3985 152.891 93.769 167.276H47.9426L0 334.187H136.943V240.611L189.691 334.187H327.18L284.983 259.285H285.021C313.092 304.506 361.307 334.356 416.077 334.366H416.105C444.929 334.366 469.925 297.675 482.31 243.999C508.407 297.665 561.07 334.337 621.793 334.347H621.83C622.037 334.347 622.244 334.356 622.451 334.347H759.215V240.781L811.894 334.347L988.959 333.896V262.607H1023.33L1043.86 333.915H1175.53L1135.14 260.599H1196.77L1175.53 333.905L1368.63 333.924L1282.99 37.0377L1440 167.107ZM136.906 218.606C123.382 218.606 112.408 174.671 112.408 120.479C112.408 66.2877 123.373 22.3521 136.906 22.3521C150.438 22.3521 161.404 66.2877 161.404 120.479C161.404 174.671 150.438 218.606 136.906 218.606ZM137.536 240.611C191.337 240.395 237.699 212.169 259.178 171.49C259.733 196.263 265.366 219.695 275.006 240.668H274.488L274.46 240.611H137.536ZM416.105 23.9666C439.785 23.9666 459.401 76.5156 462.938 145.187H369.272C372.808 76.5156 392.426 23.9666 416.105 23.9666ZM456.853 240.799C448.587 282.792 433.437 310.934 416.105 310.934C389.924 310.934 368.708 246.702 368.699 167.464H464.856C464.856 193.776 470.593 218.662 480.796 240.799H456.853ZM759.177 218.785C745.664 218.785 734.718 174.859 734.718 120.667C734.718 66.4748 745.673 22.5493 759.177 22.5493C772.682 22.5493 783.642 66.4748 783.642 120.667C783.642 174.859 772.682 218.785 759.177 218.785ZM988.959 240.339V143.245L1016.91 240.339H988.959ZM1176.56 166.958H1083.55L1083.78 120.123C1083.78 65.9309 1094.74 22.0054 1108.24 22.0054C1121.74 22.0054 1132.7 65.9309 1132.7 120.123H1237.45L1207.78 222.519L1176.54 166.958H1176.56ZM1241.98 104.517C1239.35 86.519 1232.26 69.7782 1221.73 55.1958L1261.56 36.925L1241.98 104.527V104.517Z" fill="white"/>
<rect width="1440" height="380" fill="url(#paint0_linear_588_435)"/>
</g>
<defs>
<linearGradient id="paint0_linear_588_435" x1="720" y1="0" x2="720" y2="380" gradientUnits="userSpaceOnUse">
<stop stop-color="#121316" stop-opacity="0"/>
<stop offset="1" stop-color="#121316"/>
</linearGradient>
<clipPath id="clip0_588_435">
<rect width="1440" height="334" fill="white"/>
</clipPath>
</defs>
</svg>
