<svg width="360" height="84" viewBox="0 0 360 84" fill="none" xmlns="http://www.w3.org/2000/svg">
<g clip-path="url(#clip0_628_837)">
<path fill-rule="evenodd" clip-rule="evenodd" d="M360 41.981L347.963 0.023593H307.082L303.711 11.6953C297.544 4.58039 287.9 0 277.061 0C270.605 0 265.369 13.5103 265.369 30.1774V31.8795L247.907 0.023593H238.371L221.026 60.4917H189.947C208.495 60.4162 223.503 46.934 223.503 30.3143C223.503 13.6944 208.413 0.13684 189.792 0.13684C183.336 0.13684 178.1 13.6472 178.1 30.3143C178.1 34.4845 178.427 38.4568 179.02 42.0707L167.307 42.0683C167.307 61.9769 162 78.1133 155.455 78.1133C148.91 78.1133 143.604 61.9745 143.604 42.0683C143.604 22.1621 148.91 6.0233 155.455 6.0233C159.779 6.0233 163.561 13.0697 165.633 23.5909H172.176C169.143 9.69614 162.795 0.131924 155.458 0.131924C140.272 0.131924 127.102 9.34952 120.577 22.8341C117.481 9.34952 111.232 0.134284 104.026 0.134284C87.5972 0.134284 73.531 10.922 67.6816 26.2288C65.474 11.4713 51.3372 0.0872942 34.2264 0.0872942C27.7611 0.0872942 22.5205 13.6 22.5205 30.2671C22.5205 34.4374 22.8496 38.4096 23.4423 42.0235H11.9857L0 83.9552H34.2358V60.4469L47.4228 83.9552H81.7949L71.2458 65.1382H71.2551C78.273 76.4986 90.3267 83.9976 104.019 84H104.026C111.232 84 117.481 74.7824 120.577 61.2978C127.102 74.78 140.268 83.9929 155.448 83.9953H155.458C155.509 83.9953 155.561 83.9976 155.613 83.9953H189.804V60.4894L202.973 83.9953L247.24 83.882V65.9726H255.833L260.965 83.8867H293.883L283.786 65.4681H299.193L293.883 83.8844L342.158 83.8891L320.746 9.30469L360 41.981ZM34.2264 54.9186C30.8455 54.9186 28.1019 43.8812 28.1019 30.2671C28.1019 16.6529 30.8432 5.61534 34.2264 5.61534C37.6094 5.61534 40.3509 16.6529 40.3509 30.2671C40.3509 43.8812 37.6094 54.9186 34.2264 54.9186ZM34.3839 60.4469C47.8342 60.3926 59.4248 53.3015 64.7945 43.082C64.9332 49.3057 66.3415 55.1921 68.7514 60.461H68.6221L68.615 60.4469H34.3839ZM104.026 6.02094C109.946 6.02094 114.85 19.2224 115.735 36.4742H92.3181C93.202 19.2224 98.1065 6.02094 104.026 6.02094ZM114.213 60.4941C112.147 71.0435 108.359 78.1133 104.026 78.1133C97.481 78.1133 92.177 61.9769 92.1747 42.0707H116.214C116.214 48.6809 117.648 54.9328 120.199 60.4941H114.213ZM189.794 54.9635C186.416 54.9635 183.679 43.9284 183.679 30.3143C183.679 16.6999 186.418 5.66488 189.794 5.66488C193.171 5.66488 195.91 16.6999 195.91 30.3143C195.91 43.9284 193.171 54.9635 189.794 54.9635ZM247.24 60.3785V35.9862L254.228 60.3785H247.24ZM294.14 41.9435H270.888L270.945 30.1774C270.945 16.5633 273.684 5.52824 277.061 5.52824C280.436 5.52824 283.175 16.5633 283.175 30.1774H309.361L301.946 55.9017L294.136 41.9435H294.14ZM310.494 26.2571C309.839 21.7355 308.066 17.5298 305.433 13.8664L315.389 9.27638L310.494 26.2594V26.2571Z" fill="white"/>
<rect width="360" height="104" fill="url(#paint0_linear_628_837)"/>
</g>
<defs>
<linearGradient id="paint0_linear_628_837" x1="180" y1="0" x2="180" y2="104" gradientUnits="userSpaceOnUse">
<stop stop-color="#121316" stop-opacity="0"/>
<stop offset="1" stop-color="#121316"/>
</linearGradient>
<clipPath id="clip0_628_837">
<rect width="360" height="84" fill="white"/>
</clipPath>
</defs>
</svg>
