<svg width="105" height="24" viewBox="0 0 105 24" fill="none" xmlns="http://www.w3.org/2000/svg">
<path d="M6.34105 3.65076C6.42765 1.92237 5.32327 0.0737165 3.454 0.0538118C3.16784 -0.0623773 2.62595 0.0337998 2.33739 0.115238C0.574161 0.612999 -0.372239 2.41122 0.13745 4.15926C0.436577 5.18535 1.02835 5.6683 1.92879 6.16573L1.92814 13.5072C1.92755 14.0421 1.83345 14.5618 2.24205 14.9774C2.70301 15.4465 3.502 15.4676 3.96893 14.9923C4.31176 14.6434 4.27774 14.1793 4.27796 13.7272L4.2776 9.34676V6.16573C4.58386 6.084 4.85313 5.89791 5.11023 5.71939C6.01956 6.18568 7.04069 6.75974 7.92234 7.2745L8.8302 7.81123C9.27303 8.07374 9.74769 8.41739 10.2897 8.27468C11.1754 8.04157 11.5233 6.93878 10.7849 6.31034C10.6089 6.16049 10.3915 6.05249 10.1921 5.93728L9.31673 5.42711C8.32423 4.83747 7.34651 4.21814 6.34105 3.65076Z" fill="white"/>
<path d="M21.9999 6.21343C22.2344 6.0777 22.4766 5.94597 22.6958 5.7863C25.0247 4.09088 24.0738 0.503495 21.1179 0.0538398C19.0385 -0.178429 17.2486 1.73973 17.6354 3.81934L5.49539 17.4988C5.28497 17.735 5.06502 17.9675 4.87747 18.2226C3.40092 17.2448 1.30076 17.6684 0.409714 19.2415C-0.448556 20.7567 0.0882997 22.7504 1.62057 23.5972C4.06501 24.9479 6.99234 22.6846 6.20501 20.0307C6.69161 19.557 7.13385 19.0337 7.58979 18.5304L16.458 8.7308C17.2981 7.79394 18.1437 6.84492 19.0228 5.94597L19.5949 6.21343L19.5953 14.2773C19.5953 15.4698 19.5807 16.6637 19.5949 17.8561C19.2898 17.8911 19.0764 18.0563 18.8291 18.2226C17.8262 17.6815 16.7912 17.0716 15.8054 16.4985C15.3546 16.2368 14.6277 15.7565 14.1572 15.5979C12.9849 15.2016 12.1286 16.8314 12.9948 17.585C13.3196 17.8674 13.7573 18.0628 14.1299 18.2823C15.2745 18.9558 16.4453 19.5864 17.5931 20.2549C17.2632 24.3031 22.2927 25.1994 23.6572 22.1711C24.395 20.5333 23.6408 18.5832 21.9999 17.8561V7.39526C21.9995 7.00598 21.9679 6.59995 21.9999 6.21343Z" fill="white"/>
<path d="M21.9999 6.21343C22.2344 6.0777 22.4766 5.94597 22.6958 5.7863C25.0247 4.09088 24.0738 0.503495 21.1179 0.0538398C19.0385 -0.178429 17.2486 1.73973 17.6354 3.81934L5.49539 17.4988C5.28497 17.735 5.06502 17.9675 4.87747 18.2226C3.40092 17.2448 1.30076 17.6684 0.409714 19.2415C-0.448556 20.7567 0.0882997 22.7504 1.62057 23.5972C4.06501 24.9479 6.99234 22.6846 6.20501 20.0307C6.69161 19.557 7.13385 19.0337 7.58979 18.5304L16.458 8.7308C17.2981 7.79394 18.1437 6.84492 19.0228 5.94597L19.5949 6.21343L19.5953 14.2773C19.5953 15.4698 19.5807 16.6637 19.5949 17.8561C19.2898 17.8911 19.0764 18.0563 18.8291 18.2226C17.8262 17.6815 16.7912 17.0716 15.8054 16.4985C15.3546 16.2368 14.6277 15.7565 14.1572 15.5979C12.9849 15.2016 12.1286 16.8314 12.9948 17.585C13.3196 17.8674 13.7573 18.0628 14.1299 18.2823C15.2745 18.9558 16.4453 19.5864 17.5931 20.2549C17.2632 24.3031 22.2927 25.1994 23.6572 22.1711C24.395 20.5333 23.6408 18.5832 21.9999 17.8561V7.39526C21.9995 7.00598 21.9679 6.59995 21.9999 6.21343Z" fill="white"/>
<path d="M6.34105 3.65076C6.42765 1.92237 5.32327 0.0737165 3.454 0.0538118C3.16784 -0.0623773 2.62595 0.0337998 2.33739 0.115238C0.574161 0.612999 -0.372239 2.41122 0.13745 4.15926C0.436577 5.18535 1.02835 5.6683 1.92879 6.16573L1.92814 13.5072C1.92755 14.0421 1.83345 14.5618 2.24205 14.9774C2.70301 15.4465 3.502 15.4676 3.96893 14.9923C4.31176 14.6434 4.27774 14.1793 4.27796 13.7272L4.2776 9.34676V6.16573C4.58386 6.084 4.85313 5.89791 5.11023 5.71939C6.01956 6.18568 7.04069 6.75974 7.92234 7.2745L8.8302 7.81123C9.27303 8.07374 9.74769 8.41739 10.2897 8.27468C11.1754 8.04157 11.5233 6.93878 10.7849 6.31034C10.6089 6.16049 10.3915 6.05249 10.1921 5.93728L9.31673 5.42711C8.32423 4.83747 7.34651 4.21814 6.34105 3.65076Z" fill="white"/>
<path fill-rule="evenodd" clip-rule="evenodd" d="M102.636 11.9967L100.235 3.67167H92.0813L91.4088 5.9875C90.178 4.57583 88.2547 3.66667 86.0913 3.66667C84.8047 3.66667 83.7597 6.3475 83.7597 9.65417V9.9925L80.2772 3.67167H78.3755L74.9163 15.6692H68.7172C72.4172 15.6542 75.4105 12.9792 75.4105 9.68167C75.4105 6.38417 72.4005 3.69417 68.6863 3.69417C67.3988 3.69417 66.3547 6.375 66.3547 9.68167C66.3547 10.5092 66.4197 11.2975 66.538 12.015H65.5522V12.0033H64.2022V12.0142C64.2022 15.9642 63.1438 19.165 61.838 19.165C60.5322 19.165 59.4738 15.9633 59.4738 12.0142C59.4738 8.06417 60.5322 4.8625 61.838 4.8625C62.7005 4.8625 63.4547 6.26 63.868 8.3475H65.173C64.568 5.59083 63.3022 3.69333 61.838 3.69333C58.8097 3.69333 56.183 5.5225 54.8813 8.1975C54.2647 5.5225 53.0172 3.69333 51.5805 3.69333C48.3038 3.69333 45.498 5.83417 44.3313 8.87083C43.8913 5.94333 41.0713 3.68417 37.6588 3.68417C36.3688 3.68417 35.3238 6.36583 35.3238 9.6725C35.3238 10.5 35.3897 11.2875 35.5072 12.005H33.2247L30.833 20.3242H37.6613V15.66L40.2913 20.3242H47.1472L45.043 16.5908H45.0447C46.4447 18.845 48.8488 20.3325 51.5797 20.3325H51.5813C53.018 20.3325 54.2647 18.5042 54.8822 15.8292C56.1838 18.5042 58.8097 20.3325 61.8372 20.3333H61.8388L61.8705 20.3325H68.6897V15.6683L71.3163 20.3333H78.163L78.1505 20.3108H80.1447V16.7575H81.8588L82.883 20.3117H89.448L87.4347 16.6575H90.5072L89.4488 20.3108L99.0763 20.3125L94.8063 5.51417L102.636 11.9967ZM37.6597 14.5633C36.9847 14.5633 36.438 12.3733 36.438 9.67167C36.438 6.97167 36.9847 4.78083 37.6597 4.78083C38.3347 4.78083 38.8813 6.97083 38.8813 9.6725C38.8813 12.3733 38.3347 14.5633 37.6597 14.5633ZM37.6905 15.66C40.3738 15.6492 42.6855 14.2425 43.7563 12.215C43.7838 13.45 44.0647 14.6175 44.5455 15.6633H44.5205L44.518 15.66H37.6905ZM51.5813 4.86167C52.7622 4.86167 53.7397 7.48083 53.9163 10.9033H49.2463C49.4222 7.48083 50.4005 4.86167 51.5813 4.86167ZM53.613 15.67C53.2005 17.7625 52.4455 19.165 51.5813 19.165C50.2755 19.165 49.218 15.9642 49.2172 12.015H54.0122C54.0122 13.3258 54.298 14.5658 54.8063 15.6692L53.613 15.67ZM68.688 14.5725C68.0138 14.5725 67.468 12.3825 67.468 9.68083C67.468 6.98083 68.0147 4.79083 68.688 4.79083C69.3613 4.79083 69.9072 6.98083 69.9072 9.68167C69.9072 12.3825 69.3613 14.5725 68.688 14.5725ZM80.1447 15.6467V10.8067L81.5397 15.6467H80.1447ZM89.4997 11.9883H84.8622L84.873 9.655C84.873 6.95333 85.4197 4.76333 86.093 4.76333C86.7663 4.76333 87.313 6.95333 87.313 9.655H92.5355L91.0563 14.7583L89.498 11.9892H89.4997V11.9883ZM92.7613 8.87667C92.6283 7.98763 92.2818 7.1441 91.7513 6.41833L93.7372 5.5075L92.7613 8.8775V8.87667Z" fill="white"/>
</svg>
