<svg width="228" height="33" viewBox="0 0 228 33" fill="none" xmlns="http://www.w3.org/2000/svg">
<path d="M8.52578 4.90859C8.64221 2.5847 7.15734 0.0991146 4.64403 0.072352C4.25927 -0.0838687 3.5307 0.0454451 3.14271 0.154942C0.771981 0.8242 -0.50049 3.24197 0.184807 5.59228C0.586995 6.9719 1.38266 7.62124 2.59333 8.29006L2.59245 18.1609C2.59167 18.8802 2.46514 19.579 3.01452 20.1377C3.6343 20.7683 4.70857 20.7967 5.33638 20.1577C5.79732 19.6885 5.75159 19.0645 5.75188 18.4567L5.75139 12.5671V8.29006C6.16318 8.18017 6.52522 7.92997 6.8709 7.68994C8.09352 8.31687 9.46647 9.08873 10.6519 9.78084L11.8725 10.5025C12.4679 10.8554 13.1061 11.3175 13.8349 11.1256C15.0257 10.8122 15.4935 9.32944 14.5007 8.48449C14.2641 8.28302 13.9718 8.1378 13.7037 7.9829L12.5267 7.29696C11.1922 6.50416 9.87767 5.67144 8.52578 4.90859Z" fill="#202020"/>
<path d="M29.5797 8.35441C29.895 8.17192 30.2206 7.99481 30.5154 7.78012C33.6466 5.50056 32.3682 0.67719 28.3938 0.0726112C25.598 -0.239683 23.1914 2.33935 23.7114 5.13548L7.38874 23.528C7.10583 23.8456 6.81009 24.1582 6.55793 24.5012C4.57265 23.1865 1.74891 23.756 0.550862 25.8711C-0.603115 27.9084 0.118708 30.589 2.17891 31.7275C5.46555 33.5437 9.40145 30.5005 8.34285 26.9323C8.9971 26.2953 9.59172 25.5917 10.2047 24.9151L22.1284 11.7391C23.258 10.4795 24.3949 9.20347 25.5769 7.99481L26.3461 8.35441L26.3466 19.1966C26.3466 20.7999 26.327 22.4052 26.3461 24.0085C25.9358 24.0554 25.6489 24.2776 25.3164 24.5012C23.968 23.7736 22.5764 22.9536 21.251 22.1831C20.6448 21.8313 19.6675 21.1855 19.0349 20.9721C17.4587 20.4393 16.3073 22.6307 17.472 23.644C17.9087 24.0236 18.4972 24.2864 18.9981 24.5814C20.5371 25.487 22.1113 26.3349 23.6546 27.2337C23.211 32.6767 29.9734 33.8817 31.808 29.8101C32.8 27.608 31.786 24.986 29.5797 24.0085V9.94343C29.5792 9.42002 29.5366 8.8741 29.5797 8.35441Z" fill="#202020"/>
<path d="M29.5797 8.35441C29.895 8.17192 30.2206 7.99481 30.5154 7.78012C33.6466 5.50056 32.3682 0.67719 28.3938 0.0726112C25.598 -0.239683 23.1914 2.33935 23.7114 5.13548L7.38874 23.528C7.10583 23.8456 6.81009 24.1582 6.55793 24.5012C4.57265 23.1865 1.74891 23.756 0.550862 25.8711C-0.603115 27.9084 0.118708 30.589 2.17891 31.7275C5.46555 33.5437 9.40145 30.5005 8.34285 26.9323C8.9971 26.2953 9.59172 25.5917 10.2047 24.9151L22.1284 11.7391C23.258 10.4795 24.3949 9.20347 25.5769 7.99481L26.3461 8.35441L26.3466 19.1966C26.3466 20.7999 26.327 22.4052 26.3461 24.0085C25.9358 24.0554 25.6489 24.2776 25.3164 24.5012C23.968 23.7736 22.5764 22.9536 21.251 22.1831C20.6448 21.8313 19.6675 21.1855 19.0349 20.9721C17.4587 20.4393 16.3073 22.6307 17.472 23.644C17.9087 24.0236 18.4972 24.2864 18.9981 24.5814C20.5371 25.487 22.1113 26.3349 23.6546 27.2337C23.211 32.6767 29.9734 33.8817 31.808 29.8101C32.8 27.608 31.786 24.986 29.5797 24.0085V9.94343C29.5792 9.42002 29.5366 8.8741 29.5797 8.35441Z" fill="#202020"/>
<path d="M8.52578 4.90859C8.64221 2.5847 7.15734 0.0991146 4.64403 0.072352C4.25927 -0.0838687 3.5307 0.0454451 3.14271 0.154942C0.771981 0.8242 -0.50049 3.24197 0.184807 5.59228C0.586995 6.9719 1.38266 7.62124 2.59333 8.29006L2.59245 18.1609C2.59167 18.8802 2.46514 19.579 3.01452 20.1377C3.6343 20.7683 4.70857 20.7967 5.33638 20.1577C5.79732 19.6885 5.75159 19.0645 5.75188 18.4567L5.75139 12.5671V8.29006C6.16318 8.18017 6.52522 7.92997 6.8709 7.68994C8.09352 8.31687 9.46647 9.08873 10.6519 9.78084L11.8725 10.5025C12.4679 10.8554 13.1061 11.3175 13.8349 11.1256C15.0257 10.8122 15.4935 9.32944 14.5007 8.48449C14.2641 8.28302 13.9718 8.1378 13.7037 7.9829L12.5267 7.29696C11.1922 6.50416 9.87767 5.67144 8.52578 4.90859Z" fill="#202020"/>
<path d="M48.7417 13.1421C48.682 12.5839 48.4306 12.1492 47.9874 11.8381C47.5485 11.527 46.9775 11.3715 46.2743 11.3715C45.78 11.3715 45.356 11.4461 45.0023 11.5952C44.6486 11.7444 44.378 11.9468 44.1905 12.2025C44.003 12.4581 43.9071 12.75 43.9029 13.0782C43.9029 13.3509 43.9647 13.5874 44.0883 13.7877C44.2161 13.988 44.3887 14.1584 44.606 14.299C44.8233 14.4354 45.0641 14.5505 45.3283 14.6442C45.5925 14.738 45.8588 14.8168 46.1273 14.8807L47.3546 15.1875C47.8489 15.3026 48.324 15.4581 48.78 15.6542C49.2402 15.8502 49.6515 16.0973 50.0137 16.3956C50.3802 16.6939 50.6699 17.054 50.883 17.4759C51.0961 17.8978 51.2026 18.3921 51.2026 18.9589C51.2026 19.7259 51.0066 20.4013 50.6145 20.9851C50.2225 21.5647 49.6557 22.0185 48.9142 22.3466C48.177 22.6705 47.2843 22.8324 46.236 22.8324C45.2175 22.8324 44.3333 22.6748 43.5833 22.3594C42.8375 22.0441 42.2537 21.5839 41.8319 20.9787C41.4142 20.3736 41.1884 19.6364 41.1543 18.7671H43.4874C43.5215 19.2231 43.6621 19.6023 43.9093 19.9049C44.1564 20.2074 44.4782 20.4333 44.8745 20.5824C45.275 20.7316 45.7225 20.8062 46.2168 20.8062C46.7324 20.8062 47.1841 20.7294 47.5719 20.576C47.964 20.4184 48.2708 20.201 48.4924 19.924C48.714 19.6428 48.8269 19.3147 48.8311 18.9397C48.8269 18.5988 48.7267 18.3175 48.5307 18.0959C48.3347 17.8701 48.0598 17.6826 47.7061 17.5334C47.3567 17.38 46.9476 17.2437 46.4789 17.1243L44.9895 16.7408C43.9114 16.4638 43.0591 16.0441 42.4327 15.4816C41.8106 14.9148 41.4995 14.1627 41.4995 13.2252C41.4995 12.4539 41.7083 11.7785 42.1259 11.1989C42.5478 10.6194 43.1209 10.1698 43.8454 9.85019C44.5698 9.52632 45.3901 9.36439 46.3063 9.36439C47.2353 9.36439 48.0492 9.52632 48.7481 9.85019C49.4512 10.1698 50.003 10.6151 50.4036 11.1861C50.8042 11.7529 51.0108 12.4049 51.0236 13.1421H48.7417ZM58.1172 12.8161V14.6059H52.473V12.8161H58.1172ZM53.8665 10.4638H56.1804V19.6812C56.1804 19.9922 56.2273 20.2309 56.321 20.3971C56.419 20.559 56.5469 20.6698 56.7046 20.7294C56.8622 20.7891 57.0369 20.8189 57.2287 20.8189C57.3736 20.8189 57.5057 20.8083 57.625 20.787C57.7486 20.7657 57.8423 20.7465 57.9063 20.7294L58.2962 22.5384C58.1726 22.581 57.9957 22.6279 57.7656 22.679C57.5398 22.7302 57.2628 22.76 56.9347 22.7685C56.3551 22.7856 55.8331 22.6982 55.3686 22.5064C54.9041 22.3104 54.5355 22.0079 54.2628 21.5988C53.9943 21.1897 53.8622 20.6783 53.8665 20.0647V10.4638ZM62.8777 22.8324C62.2555 22.8324 61.6951 22.7216 61.1966 22.5C60.7022 22.2742 60.3102 21.9418 60.0204 21.5029C59.7349 21.064 59.5922 20.5228 59.5922 19.8793C59.5922 19.3253 59.6944 18.8672 59.899 18.505C60.1035 18.1428 60.3826 17.853 60.7363 17.6357C61.09 17.4184 61.4885 17.2543 61.9316 17.1435C62.3791 17.0285 62.8414 16.9454 63.3187 16.8942C63.894 16.8346 64.3606 16.7813 64.7186 16.7344C65.0765 16.6833 65.3365 16.6066 65.4984 16.5043C65.6646 16.3978 65.7477 16.2337 65.7477 16.0121V15.9738C65.7477 15.4922 65.6049 15.1194 65.3194 14.8552C65.0339 14.591 64.6227 14.4589 64.0858 14.4589C63.519 14.4589 63.0694 14.5824 62.737 14.8296C62.4089 15.0767 62.1873 15.3687 62.0723 15.7053L59.9118 15.3985C60.0822 14.8019 60.3635 14.3033 60.7555 13.9027C61.1476 13.4979 61.627 13.1954 62.1937 12.9951C62.7605 12.7905 63.3869 12.6883 64.073 12.6883C64.546 12.6883 65.0169 12.7437 65.4856 12.8544C65.9544 12.9652 66.3826 13.1485 66.7704 13.4042C67.1582 13.6556 67.4693 13.9986 67.7037 14.4333C67.9423 14.8679 68.0616 15.4113 68.0616 16.0633V22.6343H65.8372V21.2856H65.7605C65.6199 21.5583 65.4217 21.814 65.166 22.0526C64.9146 22.287 64.5971 22.4766 64.2136 22.6215C63.8343 22.7621 63.389 22.8324 62.8777 22.8324ZM63.4785 21.1321C63.943 21.1321 64.3457 21.0405 64.6866 20.8573C65.0275 20.6698 65.2896 20.4226 65.4728 20.1158C65.6603 19.809 65.7541 19.4745 65.7541 19.1123V17.9553C65.6816 18.015 65.5581 18.0704 65.3834 18.1215C65.2129 18.1726 65.0211 18.2174 64.8081 18.2557C64.595 18.2941 64.3841 18.3282 64.1753 18.358C63.9664 18.3878 63.7853 18.4134 63.6319 18.4347C63.2868 18.4816 62.9778 18.5583 62.7051 18.6648C62.4324 18.7714 62.2172 18.9205 62.0595 19.1123C61.9018 19.2998 61.823 19.5427 61.823 19.841C61.823 20.2671 61.9785 20.5888 62.2896 20.8062C62.6007 21.0235 62.997 21.1321 63.4785 21.1321ZM70.4906 22.6343V9.54337H72.8045V14.4397H72.9004C73.0197 14.201 73.188 13.9475 73.4054 13.679C73.6227 13.4063 73.9167 13.174 74.2875 12.9823C74.6582 12.7863 75.1312 12.6883 75.7065 12.6883C76.465 12.6883 77.149 12.8821 77.7584 13.2699C78.372 13.6535 78.8578 14.2223 79.2157 14.9766C79.578 15.7266 79.7591 16.6471 79.7591 17.738C79.7591 18.8161 79.5822 19.7323 79.2285 20.4865C78.8748 21.2408 78.3933 21.8161 77.7839 22.2124C77.1745 22.6087 76.4842 22.8069 75.7129 22.8069C75.1504 22.8069 74.6838 22.7131 74.313 22.5256C73.9423 22.3381 73.644 22.1123 73.4182 21.8481C73.1966 21.5796 73.024 21.326 72.9004 21.0874H72.7662V22.6343H70.4906ZM72.7598 17.7252C72.7598 18.3601 72.8493 18.9162 73.0282 19.3935C73.2115 19.8708 73.4735 20.2437 73.8145 20.5121C74.1596 20.7763 74.5772 20.9084 75.0673 20.9084C75.5787 20.9084 76.0069 20.7721 76.3521 20.4993C76.6973 20.2223 76.9572 19.8452 77.1319 19.3679C77.3109 18.8864 77.4004 18.3388 77.4004 17.7252C77.4004 17.1158 77.313 16.5746 77.1383 16.1016C76.9636 15.6286 76.7037 15.2579 76.3585 14.9894C76.0133 14.7209 75.5829 14.5867 75.0673 14.5867C74.573 14.5867 74.1532 14.7167 73.8081 14.9766C73.4629 15.2365 73.2008 15.6009 73.0218 16.0696C72.8471 16.5384 72.7598 17.0902 72.7598 17.7252ZM84.0401 9.54337V22.6343H81.7262V9.54337H84.0401ZM90.7662 22.826C89.7818 22.826 88.9316 22.6215 88.2157 22.2124C87.5041 21.7991 86.9565 21.2152 86.573 20.461C86.1895 19.7025 85.9977 18.8097 85.9977 17.7827C85.9977 16.7728 86.1895 15.8864 86.573 15.1236C86.9608 14.3566 87.502 13.76 88.1966 13.3339C88.8912 12.9035 89.7072 12.6883 90.6447 12.6883C91.2498 12.6883 91.8209 12.7863 92.3578 12.9823C92.899 13.174 93.3762 13.4723 93.7896 13.8772C94.2072 14.282 94.5353 14.7976 94.774 15.424C95.0126 16.0462 95.1319 16.7877 95.1319 17.6485V18.358H87.0843V16.7983H92.9139C92.9096 16.3552 92.8137 15.961 92.6262 15.6158C92.4387 15.2664 92.1767 14.9915 91.84 14.7912C91.5076 14.591 91.1199 14.4908 90.6767 14.4908C90.2037 14.4908 89.7882 14.6059 89.4302 14.836C89.0723 15.0618 88.7932 15.3601 88.5929 15.7309C88.3968 16.0973 88.2967 16.5 88.2924 16.939V18.3005C88.2924 18.8715 88.3968 19.3615 88.6057 19.7706C88.8145 20.1755 89.1064 20.4865 89.4814 20.7039C89.8564 20.9169 90.2953 21.0235 90.7981 21.0235C91.1348 21.0235 91.4395 20.9766 91.7122 20.8829C91.9849 20.7848 92.2214 20.6421 92.4217 20.4546C92.622 20.2671 92.7733 20.0348 92.8755 19.7579L95.036 20.0008C94.8997 20.5718 94.6397 21.0704 94.2562 21.4965C93.877 21.9184 93.3912 22.2465 92.7988 22.4809C92.2065 22.711 91.5289 22.826 90.7662 22.826Z" fill="#202020"/>
<path d="M106.093 22.6343H101.657V9.54337H106.182C107.482 9.54337 108.598 9.80544 109.532 10.3296C110.469 10.8495 111.189 11.5973 111.692 12.5732C112.195 13.549 112.446 14.7167 112.446 16.076C112.446 17.4397 112.193 18.6115 111.686 19.5917C111.183 20.5718 110.456 21.3239 109.506 21.8481C108.56 22.3722 107.422 22.6343 106.093 22.6343ZM104.028 20.5824H105.978C106.89 20.5824 107.65 20.4162 108.26 20.0839C108.869 19.7472 109.327 19.2465 109.634 18.5817C109.941 17.9127 110.094 17.0775 110.094 16.076C110.094 15.0746 109.941 14.2437 109.634 13.5831C109.327 12.9184 108.873 12.4219 108.272 12.0938C107.676 11.7614 106.934 11.5952 106.048 11.5952H104.028V20.5824ZM114.597 22.6343V12.8161H116.911V22.6343H114.597ZM115.761 11.4226C115.394 11.4226 115.079 11.3012 114.815 11.0583C114.55 10.8111 114.418 10.515 114.418 10.1698C114.418 9.82036 114.55 9.52419 114.815 9.28129C115.079 9.03413 115.394 8.91056 115.761 8.91056C116.131 8.91056 116.447 9.03413 116.707 9.28129C116.971 9.52419 117.103 9.82036 117.103 10.1698C117.103 10.515 116.971 10.8111 116.707 11.0583C116.447 11.3012 116.131 11.4226 115.761 11.4226ZM124.264 12.8161V14.6059H118.46V12.8161H124.264ZM119.911 22.6343V11.8892C119.911 11.2287 120.047 10.679 120.32 10.2401C120.597 9.80118 120.968 9.47306 121.432 9.25573C121.896 9.0384 122.412 8.92973 122.979 8.92973C123.379 8.92973 123.735 8.96169 124.046 9.02561C124.357 9.08953 124.588 9.14706 124.737 9.1982L124.276 10.988C124.178 10.9581 124.055 10.9283 123.906 10.8985C123.757 10.8644 123.59 10.8473 123.407 10.8473C122.977 10.8473 122.672 10.9517 122.493 11.1606C122.318 11.3651 122.231 11.6591 122.231 12.0427V22.6343H119.911ZM131.049 12.8161V14.6059H125.245V12.8161H131.049ZM126.696 22.6343V11.8892C126.696 11.2287 126.832 10.679 127.105 10.2401C127.382 9.80118 127.753 9.47306 128.217 9.25573C128.682 9.0384 129.197 8.92973 129.764 8.92973C130.165 8.92973 130.52 8.96169 130.832 9.02561C131.143 9.08953 131.373 9.14706 131.522 9.1982L131.062 10.988C130.964 10.9581 130.84 10.9283 130.691 10.8985C130.542 10.8644 130.376 10.8473 130.192 10.8473C129.762 10.8473 129.457 10.9517 129.278 11.1606C129.104 11.3651 129.016 11.6591 129.016 12.0427V22.6343H126.696ZM139.119 18.505V12.8161H141.433V22.6343H139.189V20.8892H139.087C138.865 21.439 138.501 21.8885 137.994 22.238C137.491 22.5874 136.871 22.7621 136.134 22.7621C135.49 22.7621 134.921 22.6194 134.427 22.3339C133.937 22.0441 133.553 21.6243 133.276 21.0746C132.999 20.5206 132.861 19.8516 132.861 19.0675V12.8161H135.175V18.7096C135.175 19.3317 135.345 19.826 135.686 20.1925C136.027 20.559 136.475 20.7422 137.029 20.7422C137.37 20.7422 137.7 20.6591 138.019 20.4929C138.339 20.3267 138.601 20.0796 138.806 19.7515C139.014 19.4191 139.119 19.0036 139.119 18.505ZM151.572 15.4113L149.463 15.6414C149.403 15.4283 149.299 15.228 149.15 15.0405C149.005 14.853 148.809 14.7017 148.561 14.5867C148.314 14.4716 148.012 14.4141 147.654 14.4141C147.172 14.4141 146.767 14.5185 146.439 14.7273C146.115 14.9361 145.956 15.2067 145.96 15.5391C145.956 15.8246 146.06 16.0569 146.273 16.2358C146.49 16.4148 146.848 16.5618 147.347 16.6769L149.022 17.0348C149.951 17.2351 150.641 17.5526 151.093 17.9873C151.549 18.4219 151.779 18.9908 151.783 19.6939C151.779 20.3118 151.598 20.8573 151.24 21.3303C150.886 21.7991 150.394 22.1655 149.763 22.4297C149.132 22.6939 148.408 22.826 147.59 22.826C146.388 22.826 145.421 22.5746 144.688 22.0718C143.955 21.5647 143.518 20.8594 143.377 19.956L145.634 19.7387C145.736 20.1819 145.953 20.5164 146.286 20.7422C146.618 20.9681 147.051 21.081 147.583 21.081C148.133 21.081 148.574 20.9681 148.907 20.7422C149.243 20.5164 149.412 20.2373 149.412 19.9049C149.412 19.6236 149.303 19.3914 149.086 19.2081C148.873 19.0249 148.54 18.8843 148.088 18.7863L146.414 18.4347C145.472 18.2387 144.775 17.9084 144.324 17.4439C143.872 16.9752 143.648 16.3829 143.652 15.6669C143.648 15.0618 143.812 14.5377 144.145 14.0945C144.481 13.6471 144.948 13.3019 145.544 13.059C146.145 12.8118 146.838 12.6883 147.622 12.6883C148.772 12.6883 149.678 12.9333 150.338 13.4233C151.003 13.9134 151.414 14.576 151.572 15.4113ZM153.691 22.6343V12.8161H156.005V22.6343H153.691ZM154.854 11.4226C154.488 11.4226 154.173 11.3012 153.908 11.0583C153.644 10.8111 153.512 10.515 153.512 10.1698C153.512 9.82036 153.644 9.52419 153.908 9.28129C154.173 9.03413 154.488 8.91056 154.854 8.91056C155.225 8.91056 155.54 9.03413 155.8 9.28129C156.065 9.52419 156.197 9.82036 156.197 10.1698C156.197 10.515 156.065 10.8111 155.8 11.0583C155.54 11.3012 155.225 11.4226 154.854 11.4226ZM162.667 22.826C161.708 22.826 160.877 22.6151 160.174 22.1932C159.471 21.7714 158.926 21.1812 158.538 20.4226C158.154 19.6641 157.963 18.7777 157.963 17.7635C157.963 16.7493 158.154 15.8608 158.538 15.0981C158.926 14.3353 159.471 13.7429 160.174 13.3211C160.877 12.8992 161.708 12.6883 162.667 12.6883C163.626 12.6883 164.457 12.8992 165.16 13.3211C165.863 13.7429 166.406 14.3353 166.79 15.0981C167.178 15.8608 167.372 16.7493 167.372 17.7635C167.372 18.7777 167.178 19.6641 166.79 20.4226C166.406 21.1812 165.863 21.7714 165.16 22.1932C164.457 22.6151 163.626 22.826 162.667 22.826ZM162.68 20.9723C163.2 20.9723 163.634 20.8296 163.984 20.5441C164.333 20.2543 164.593 19.8665 164.764 19.3807C164.938 18.8949 165.026 18.3537 165.026 17.7571C165.026 17.1563 164.938 16.613 164.764 16.1272C164.593 15.6371 164.333 15.2472 163.984 14.9574C163.634 14.6677 163.2 14.5228 162.68 14.5228C162.147 14.5228 161.704 14.6677 161.35 14.9574C161.001 15.2472 160.739 15.6371 160.564 16.1272C160.394 16.613 160.308 17.1563 160.308 17.7571C160.308 18.3537 160.394 18.8949 160.564 19.3807C160.739 19.8665 161.001 20.2543 161.35 20.5441C161.704 20.8296 162.147 20.9723 162.68 20.9723ZM171.65 16.8814V22.6343H169.336V12.8161H171.547V14.4844H171.662C171.888 13.9347 172.248 13.4979 172.743 13.174C173.241 12.8502 173.857 12.6883 174.59 12.6883C175.267 12.6883 175.858 12.8331 176.36 13.1229C176.868 13.4127 177.26 13.8324 177.537 14.3821C177.818 14.9319 177.956 15.5988 177.952 16.3829V22.6343H175.638V16.7408C175.638 16.0846 175.468 15.5711 175.127 15.2003C174.79 14.8296 174.324 14.6442 173.727 14.6442C173.322 14.6442 172.962 14.7337 172.647 14.9127C172.336 15.0874 172.091 15.341 171.912 15.6733C171.737 16.0057 171.65 16.4084 171.65 16.8814Z" fill="#005FF9"/>
</svg>
