<svg width="210" height="57" viewBox="0 0 210 57" fill="none" xmlns="http://www.w3.org/2000/svg">
<path d="M14.9201 8.59003C15.1239 4.52323 12.5253 0.17345 8.12706 0.126616C7.45373 -0.14677 6.17872 0.079529 5.49974 0.271148C1.35097 1.44235 -0.875857 5.67346 0.323412 9.78649C1.02724 12.2008 2.41965 13.3372 4.53833 14.5076L4.53679 31.7815C4.53542 33.0403 4.314 34.2632 5.27541 35.241C6.36003 36.3446 8.23999 36.3943 9.33866 35.2761C10.1453 34.455 10.0653 33.363 10.0658 32.2992L10.0649 21.9924V14.5076C10.7856 14.3153 11.4191 13.8774 12.0241 13.4574C14.1637 14.5545 16.5663 15.9053 18.6408 17.1165L20.777 18.3794C21.8189 18.997 22.9357 19.8056 24.2111 19.4698C26.295 18.9213 27.1136 16.3265 25.3763 14.8479C24.9622 14.4953 24.4507 14.2412 23.9815 13.9701L21.9217 12.7697C19.5864 11.3823 17.2859 9.92503 14.9201 8.59003Z" fill="#202020"/>
<path d="M51.7645 14.6197C52.3163 14.3004 52.8861 13.9904 53.4019 13.6147C58.8816 9.62549 56.6443 1.18459 49.6891 0.126581C44.7964 -0.419934 40.5849 4.09338 41.4949 8.98659L12.9303 41.1736C12.4352 41.7292 11.9177 42.2764 11.4764 42.8766C8.00214 40.5759 3.06059 41.5726 0.964017 45.2739C-1.05544 48.8392 0.207747 53.5303 3.81309 55.5227C9.56471 58.7009 16.4525 53.3753 14.6 47.131C15.7449 46.0163 16.7855 44.785 17.8583 43.6009L38.7247 20.543C40.7015 18.3386 42.6911 16.1056 44.7596 13.9904L46.1057 14.6197L46.1066 33.5936C46.1066 36.3994 46.0723 39.2086 46.1057 42.0144C45.3877 42.0966 44.8855 42.4853 44.3037 42.8766C41.9439 41.6034 39.5087 40.1684 37.1892 38.8199C36.1284 38.2043 34.4181 37.0741 33.311 36.7008C30.5528 35.7683 28.5378 39.6033 30.5761 41.3765C31.3402 42.0409 32.3702 42.5007 33.2468 43.017C35.9399 44.6018 38.6947 46.0856 41.3955 47.6585C40.6192 57.1837 52.4534 59.2926 55.6641 52.1672C57.4001 48.3135 55.6255 43.7251 51.7645 42.0144V17.4005C51.7636 16.4845 51.6891 15.5292 51.7645 14.6197Z" fill="#202020"/>
<path d="M51.7645 14.6197C52.3163 14.3004 52.8861 13.9904 53.4019 13.6147C58.8816 9.62549 56.6443 1.18459 49.6891 0.126581C44.7964 -0.419934 40.5849 4.09338 41.4949 8.98659L12.9303 41.1736C12.4352 41.7292 11.9177 42.2764 11.4764 42.8766C8.00214 40.5759 3.06059 41.5726 0.964017 45.2739C-1.05544 48.8392 0.207747 53.5303 3.81309 55.5227C9.56471 58.7009 16.4525 53.3753 14.6 47.131C15.7449 46.0163 16.7855 44.785 17.8583 43.6009L38.7247 20.543C40.7015 18.3386 42.6911 16.1056 44.7596 13.9904L46.1057 14.6197L46.1066 33.5936C46.1066 36.3994 46.0723 39.2086 46.1057 42.0144C45.3877 42.0966 44.8855 42.4853 44.3037 42.8766C41.9439 41.6034 39.5087 40.1684 37.1892 38.8199C36.1284 38.2043 34.4181 37.0741 33.311 36.7008C30.5528 35.7683 28.5378 39.6033 30.5761 41.3765C31.3402 42.0409 32.3702 42.5007 33.2468 43.017C35.9399 44.6018 38.6947 46.0856 41.3955 47.6585C40.6192 57.1837 52.4534 59.2926 55.6641 52.1672C57.4001 48.3135 55.6255 43.7251 51.7645 42.0144V17.4005C51.7636 16.4845 51.6891 15.5292 51.7645 14.6197Z" fill="#202020"/>
<path d="M14.9201 8.59003C15.1239 4.52323 12.5253 0.17345 8.12706 0.126616C7.45373 -0.14677 6.17872 0.079529 5.49974 0.271148C1.35097 1.44235 -0.875857 5.67346 0.323412 9.78649C1.02724 12.2008 2.41965 13.3372 4.53833 14.5076L4.53679 31.7815C4.53542 33.0403 4.314 34.2632 5.27541 35.241C6.36003 36.3446 8.23999 36.3943 9.33866 35.2761C10.1453 34.455 10.0653 33.363 10.0658 32.2992L10.0649 21.9924V14.5076C10.7856 14.3153 11.4191 13.8774 12.0241 13.4574C14.1637 14.5545 16.5663 15.9053 18.6408 17.1165L20.777 18.3794C21.8189 18.997 22.9357 19.8056 24.2111 19.4698C26.295 18.9213 27.1136 16.3265 25.3763 14.8479C24.9622 14.4953 24.4507 14.2412 23.9815 13.9701L21.9217 12.7697C19.5864 11.3823 17.2859 9.92503 14.9201 8.59003Z" fill="#202020"/>
<path d="M78.9938 25.2432C78.9341 24.6849 78.6827 24.2503 78.2395 23.9392C77.8006 23.6281 77.2296 23.4726 76.5264 23.4726C76.0321 23.4726 75.6081 23.5471 75.2544 23.6963C74.9007 23.8454 74.6301 24.0479 74.4426 24.3035C74.2551 24.5592 74.1592 24.8511 74.155 25.1792C74.155 25.452 74.2168 25.6885 74.3404 25.8888C74.4682 26.089 74.6408 26.2595 74.8581 26.4001C75.0754 26.5365 75.3162 26.6515 75.5804 26.7453C75.8446 26.839 76.111 26.9179 76.3794 26.9818L77.6067 27.2886C78.101 27.4037 78.5762 27.5592 79.0321 27.7552C79.4923 27.9513 79.9036 28.1984 80.2658 28.4967C80.6323 28.795 80.922 29.1551 81.1351 29.577C81.3482 29.9988 81.4547 30.4932 81.4547 31.0599C81.4547 31.827 81.2587 32.5024 80.8666 33.0862C80.4746 33.6657 79.9078 34.1196 79.1664 34.4477C78.4291 34.7716 77.5364 34.9335 76.4881 34.9335C75.4696 34.9335 74.5854 34.7758 73.8354 34.4605C73.0896 34.1452 72.5058 33.6849 72.084 33.0798C71.6664 32.4747 71.4405 31.7375 71.4064 30.8682H73.7395C73.7736 31.3241 73.9142 31.7034 74.1614 32.0059C74.4085 32.3085 74.7303 32.5344 75.1266 32.6835C75.5271 32.8327 75.9746 32.9072 76.4689 32.9072C76.9845 32.9072 77.4362 32.8305 77.824 32.6771C78.2161 32.5194 78.5229 32.3021 78.7445 32.0251C78.9661 31.7439 79.079 31.4157 79.0833 31.0407C79.079 30.6998 78.9789 30.4186 78.7828 30.197C78.5868 29.9711 78.3119 29.7836 77.9583 29.6345C77.6088 29.4811 77.1997 29.3447 76.731 29.2254L75.2416 28.8419C74.1635 28.5649 73.3112 28.1452 72.6848 27.5827C72.0627 27.0159 71.7516 26.2638 71.7516 25.3263C71.7516 24.555 71.9604 23.8795 72.378 23.3C72.7999 22.7204 73.373 22.2709 74.0975 21.9513C74.8219 21.6274 75.6422 21.4655 76.5584 21.4655C77.4874 21.4655 78.3013 21.6274 79.0002 21.9513C79.7033 22.2709 80.2551 22.7162 80.6557 23.2872C81.0563 23.854 81.2629 24.5059 81.2757 25.2432H78.9938ZM88.3693 24.9172V26.7069H82.7251V24.9172H88.3693ZM84.1186 22.5649H86.4325V31.7822C86.4325 32.0933 86.4794 32.3319 86.5731 32.4981C86.6711 32.6601 86.799 32.7709 86.9567 32.8305C87.1143 32.8902 87.289 32.92 87.4808 32.92C87.6257 32.92 87.7578 32.9094 87.8771 32.8881C88.0007 32.8667 88.0944 32.8476 88.1584 32.8305L88.5483 34.6395C88.4247 34.6821 88.2479 34.729 88.0177 34.7801C87.7919 34.8312 87.5149 34.8611 87.1868 34.8696C86.6072 34.8866 86.0852 34.7993 85.6207 34.6075C85.1562 34.4115 84.7876 34.1089 84.5149 33.6998C84.2464 33.2907 84.1143 32.7794 84.1186 32.1657V22.5649ZM93.1298 34.9335C92.5076 34.9335 91.9472 34.8227 91.4487 34.6011C90.9543 34.3753 90.5623 34.0429 90.2725 33.604C89.987 33.165 89.8443 32.6238 89.8443 31.9804C89.8443 31.4264 89.9465 30.9683 90.1511 30.6061C90.3556 30.2439 90.6347 29.9541 90.9884 29.7368C91.3421 29.5194 91.7406 29.3554 92.1838 29.2446C92.6312 29.1295 93.0936 29.0464 93.5708 28.9953C94.1461 28.9356 94.6127 28.8824 94.9707 28.8355C95.3286 28.7844 95.5886 28.7077 95.7505 28.6054C95.9167 28.4988 95.9998 28.3348 95.9998 28.1132V28.0748C95.9998 27.5933 95.857 27.2204 95.5715 26.9562C95.286 26.692 94.8748 26.5599 94.3379 26.5599C93.7711 26.5599 93.3215 26.6835 92.9891 26.9307C92.661 27.1778 92.4394 27.4697 92.3244 27.8064L90.1639 27.4996C90.3343 26.903 90.6156 26.4044 91.0076 26.0038C91.3997 25.599 91.8791 25.2964 92.4458 25.0961C93.0126 24.8916 93.639 24.7893 94.3251 24.7893C94.7981 24.7893 95.269 24.8447 95.7377 24.9555C96.2065 25.0663 96.6347 25.2496 97.0225 25.5052C97.4103 25.7567 97.7214 26.0997 97.9558 26.5344C98.1944 26.969 98.3137 27.5123 98.3137 28.1643V34.7354H96.0893V33.3866H96.0126C95.872 33.6594 95.6738 33.915 95.4181 34.1537C95.1667 34.3881 94.8492 34.5777 94.4657 34.7226C94.0865 34.8632 93.6411 34.9335 93.1298 34.9335ZM93.7306 33.2332C94.1951 33.2332 94.5978 33.1416 94.9387 32.9584C95.2796 32.7709 95.5417 32.5237 95.7249 32.2169C95.9124 31.9101 96.0062 31.5756 96.0062 31.2133V30.0564C95.9338 30.116 95.8102 30.1714 95.6355 30.2226C95.465 30.2737 95.2732 30.3184 95.0602 30.3568C94.8471 30.3952 94.6362 30.4292 94.4274 30.4591C94.2186 30.4889 94.0374 30.5145 93.884 30.5358C93.5389 30.5827 93.2299 30.6594 92.9572 30.7659C92.6845 30.8724 92.4693 31.0216 92.3116 31.2133C92.1539 31.4008 92.0751 31.6437 92.0751 31.942C92.0751 32.3682 92.2306 32.6899 92.5417 32.9072C92.8528 33.1246 93.2491 33.2332 93.7306 33.2332ZM100.743 34.7354V21.6444H103.057V26.5407H103.153C103.272 26.3021 103.44 26.0486 103.657 25.7801C103.875 25.5074 104.169 25.2751 104.54 25.0834C104.91 24.8873 105.383 24.7893 105.959 24.7893C106.717 24.7893 107.401 24.9832 108.01 25.371C108.624 25.7545 109.11 26.3234 109.468 27.0777C109.83 27.8277 110.011 28.7481 110.011 29.839C110.011 30.9172 109.834 31.8334 109.481 32.5876C109.127 33.3419 108.645 33.9172 108.036 34.3135C107.427 34.7098 106.736 34.9079 105.965 34.9079C105.403 34.9079 104.936 34.8142 104.565 34.6267C104.194 34.4392 103.896 34.2133 103.67 33.9491C103.449 33.6807 103.276 33.4271 103.153 33.1885H103.018V34.7354H100.743ZM103.012 29.8263C103.012 30.4612 103.101 31.0173 103.28 31.4946C103.464 31.9719 103.726 32.3447 104.067 32.6132C104.412 32.8774 104.829 33.0095 105.319 33.0095C105.831 33.0095 106.259 32.8731 106.604 32.6004C106.949 32.3234 107.209 31.9463 107.384 31.469C107.563 30.9875 107.653 30.4399 107.653 29.8263C107.653 29.2169 107.565 28.6757 107.39 28.2027C107.216 27.7297 106.956 27.3589 106.611 27.0905C106.265 26.822 105.835 26.6878 105.319 26.6878C104.825 26.6878 104.405 26.8177 104.06 27.0777C103.715 27.3376 103.453 27.702 103.274 28.1707C103.099 28.6395 103.012 29.1913 103.012 29.8263ZM114.292 21.6444V34.7354H111.978V21.6444H114.292ZM121.018 34.9271C120.034 34.9271 119.184 34.7226 118.468 34.3135C117.756 33.9001 117.209 33.3163 116.825 32.5621C116.442 31.8035 116.25 30.9108 116.25 29.8838C116.25 28.8738 116.442 27.9875 116.825 27.2247C117.213 26.4577 117.754 25.8611 118.449 25.4349C119.143 25.0045 119.959 24.7893 120.897 24.7893C121.502 24.7893 122.073 24.8873 122.61 25.0834C123.151 25.2751 123.628 25.5734 124.042 25.9782C124.459 26.3831 124.787 26.8987 125.026 27.5251C125.265 28.1473 125.384 28.8888 125.384 29.7496V30.4591H117.336V28.8994H123.166C123.162 28.4562 123.066 28.0621 122.878 27.7169C122.691 27.3675 122.429 27.0926 122.092 26.8923C121.76 26.692 121.372 26.5919 120.929 26.5919C120.456 26.5919 120.04 26.7069 119.682 26.9371C119.324 27.1629 119.045 27.4612 118.845 27.8319C118.649 28.1984 118.549 28.6011 118.545 29.04V30.4015C118.545 30.9726 118.649 31.4626 118.858 31.8717C119.067 32.2765 119.358 32.5876 119.733 32.805C120.108 33.018 120.547 33.1246 121.05 33.1246C121.387 33.1246 121.692 33.0777 121.964 32.9839C122.237 32.8859 122.474 32.7432 122.674 32.5557C122.874 32.3682 123.025 32.1359 123.128 31.8589L125.288 32.1018C125.152 32.6729 124.892 33.1714 124.508 33.5976C124.129 34.0194 123.643 34.3476 123.051 34.5819C122.459 34.8121 121.781 34.9271 121.018 34.9271Z" fill="#202020"/>
<path d="M136.345 34.7354H131.909V21.6444H136.434C137.734 21.6444 138.85 21.9065 139.784 22.4307C140.721 22.9505 141.441 23.6984 141.944 24.6743C142.447 25.6501 142.698 26.8177 142.698 28.1771C142.698 29.5407 142.445 30.7126 141.938 31.6927C141.435 32.6729 140.708 33.425 139.758 33.9491C138.812 34.4733 137.674 34.7354 136.345 34.7354ZM134.28 32.6835H136.23C137.142 32.6835 137.902 32.5173 138.512 32.1849C139.121 31.8483 139.579 31.3476 139.886 30.6828C140.193 30.0138 140.346 29.1785 140.346 28.1771C140.346 27.1757 140.193 26.3447 139.886 25.6842C139.579 25.0194 139.125 24.523 138.524 24.1949C137.928 23.8625 137.186 23.6963 136.3 23.6963H134.28V32.6835ZM144.849 34.7354V24.9172H147.163V34.7354H144.849ZM146.013 23.5237C145.646 23.5237 145.331 23.4023 145.067 23.1594C144.803 22.9122 144.67 22.616 144.67 22.2709C144.67 21.9214 144.803 21.6253 145.067 21.3824C145.331 21.1352 145.646 21.0116 146.013 21.0116C146.384 21.0116 146.699 21.1352 146.959 21.3824C147.223 21.6253 147.355 21.9214 147.355 22.2709C147.355 22.616 147.223 22.9122 146.959 23.1594C146.699 23.4023 146.384 23.5237 146.013 23.5237ZM154.516 24.9172V26.7069H148.712V24.9172H154.516ZM150.163 34.7354V23.9903C150.163 23.3298 150.299 22.7801 150.572 22.3412C150.849 21.9023 151.22 21.5741 151.684 21.3568C152.149 21.1395 152.664 21.0308 153.231 21.0308C153.632 21.0308 153.987 21.0628 154.298 21.1267C154.61 21.1906 154.84 21.2481 154.989 21.2993L154.529 23.089C154.431 23.0592 154.307 23.0294 154.158 22.9996C154.009 22.9655 153.842 22.9484 153.659 22.9484C153.229 22.9484 152.924 23.0528 152.745 23.2616C152.57 23.4662 152.483 23.7602 152.483 24.1437V34.7354H150.163ZM161.301 24.9172V26.7069H155.497V24.9172H161.301ZM156.948 34.7354V23.9903C156.948 23.3298 157.084 22.7801 157.357 22.3412C157.634 21.9023 158.005 21.5741 158.469 21.3568C158.934 21.1395 159.449 21.0308 160.016 21.0308C160.417 21.0308 160.773 21.0628 161.084 21.1267C161.395 21.1906 161.625 21.2481 161.774 21.2993L161.314 23.089C161.216 23.0592 161.092 23.0294 160.943 22.9996C160.794 22.9655 160.628 22.9484 160.444 22.9484C160.014 22.9484 159.709 23.0528 159.53 23.2616C159.356 23.4662 159.268 23.7602 159.268 24.1437V34.7354H156.948ZM169.371 30.6061V24.9172H171.685V34.7354H169.441V32.9903H169.339C169.117 33.54 168.753 33.9896 168.246 34.339C167.743 34.6885 167.123 34.8632 166.386 34.8632C165.742 34.8632 165.173 34.7204 164.679 34.4349C164.189 34.1452 163.806 33.7254 163.529 33.1757C163.252 32.6217 163.113 31.9527 163.113 31.1686V24.9172H165.427V30.8106C165.427 31.4328 165.597 31.9271 165.938 32.2936C166.279 32.6601 166.727 32.8433 167.281 32.8433C167.622 32.8433 167.952 32.7602 168.271 32.594C168.591 32.4278 168.853 32.1807 169.058 31.8525C169.266 31.5202 169.371 31.1047 169.371 30.6061ZM181.824 27.5123L179.715 27.7425C179.655 27.5294 179.551 27.3291 179.402 27.1416C179.257 26.9541 179.061 26.8028 178.814 26.6878C178.566 26.5727 178.264 26.5152 177.906 26.5152C177.424 26.5152 177.02 26.6196 176.691 26.8284C176.368 27.0372 176.208 27.3078 176.212 27.6402C176.208 27.9257 176.312 28.1579 176.525 28.3369C176.743 28.5159 177.1 28.6629 177.599 28.778L179.274 29.1359C180.203 29.3362 180.893 29.6537 181.345 30.0883C181.801 30.523 182.031 31.0919 182.035 31.795C182.031 32.4129 181.85 32.9584 181.492 33.4314C181.138 33.9001 180.646 34.2666 180.015 34.5308C179.385 34.795 178.66 34.9271 177.842 34.9271C176.64 34.9271 175.673 34.6757 174.94 34.1729C174.207 33.6657 173.77 32.9605 173.63 32.0571L175.886 31.8398C175.988 32.2829 176.206 32.6175 176.538 32.8433C176.87 33.0692 177.303 33.1821 177.836 33.1821C178.385 33.1821 178.826 33.0692 179.159 32.8433C179.495 32.6175 179.664 32.3383 179.664 32.0059C179.664 31.7247 179.555 31.4925 179.338 31.3092C179.125 31.126 178.792 30.9854 178.341 30.8873L176.666 30.5358C175.724 30.3398 175.027 30.0095 174.576 29.545C174.124 29.0763 173.9 28.4839 173.904 27.768C173.9 27.1629 174.064 26.6388 174.397 26.1956C174.733 25.7481 175.2 25.403 175.797 25.1601C176.397 24.9129 177.09 24.7893 177.874 24.7893C179.024 24.7893 179.93 25.0344 180.591 25.5244C181.255 26.0145 181.667 26.6771 181.824 27.5123ZM183.943 34.7354V24.9172H186.257V34.7354H183.943ZM185.107 23.5237C184.74 23.5237 184.425 23.4023 184.16 23.1594C183.896 22.9122 183.764 22.616 183.764 22.2709C183.764 21.9214 183.896 21.6253 184.16 21.3824C184.425 21.1352 184.74 21.0116 185.107 21.0116C185.477 21.0116 185.793 21.1352 186.053 21.3824C186.317 21.6253 186.449 21.9214 186.449 22.2709C186.449 22.616 186.317 22.9122 186.053 23.1594C185.793 23.4023 185.477 23.5237 185.107 23.5237ZM192.919 34.9271C191.96 34.9271 191.129 34.7162 190.426 34.2943C189.723 33.8724 189.178 33.2822 188.79 32.5237C188.406 31.7652 188.215 30.8788 188.215 29.8646C188.215 28.8504 188.406 27.9619 188.79 27.1991C189.178 26.4363 189.723 25.844 190.426 25.4221C191.129 25.0003 191.96 24.7893 192.919 24.7893C193.878 24.7893 194.709 25.0003 195.412 25.4221C196.115 25.844 196.659 26.4363 197.042 27.1991C197.43 27.9619 197.624 28.8504 197.624 29.8646C197.624 30.8788 197.43 31.7652 197.042 32.5237C196.659 33.2822 196.115 33.8724 195.412 34.2943C194.709 34.7162 193.878 34.9271 192.919 34.9271ZM192.932 33.0734C193.452 33.0734 193.887 32.9307 194.236 32.6452C194.585 32.3554 194.845 31.9676 195.016 31.4818C195.19 30.996 195.278 30.4548 195.278 29.8582C195.278 29.2574 195.19 28.714 195.016 28.2282C194.845 27.7382 194.585 27.3483 194.236 27.0585C193.887 26.7687 193.452 26.6238 192.932 26.6238C192.399 26.6238 191.956 26.7687 191.602 27.0585C191.253 27.3483 190.991 27.7382 190.816 28.2282C190.646 28.714 190.561 29.2574 190.561 29.8582C190.561 30.4548 190.646 30.996 190.816 31.4818C190.991 31.9676 191.253 32.3554 191.602 32.6452C191.956 32.9307 192.399 33.0734 192.932 33.0734ZM201.902 28.9825V34.7354H199.588V24.9172H201.799V26.5855H201.914C202.14 26.0358 202.5 25.599 202.995 25.2751C203.493 24.9513 204.109 24.7893 204.842 24.7893C205.52 24.7893 206.11 24.9342 206.613 25.224C207.12 25.5138 207.512 25.9335 207.789 26.4832C208.07 27.0329 208.208 27.6998 208.204 28.4839V34.7354H205.89V28.8419C205.89 28.1856 205.72 27.6721 205.379 27.3014C205.042 26.9307 204.576 26.7453 203.979 26.7453C203.574 26.7453 203.214 26.8348 202.899 27.0138C202.588 27.1885 202.343 27.442 202.164 27.7744C201.989 28.1068 201.902 28.5095 201.902 28.9825Z" fill="#005FF9"/>
</svg>
