<svg width="169" height="24" viewBox="0 0 169 24" fill="none" xmlns="http://www.w3.org/2000/svg">
<path d="M6.34105 3.65076C6.42765 1.92237 5.32327 0.0737165 3.454 0.0538118C3.16784 -0.0623773 2.62595 0.0337998 2.33739 0.115238C0.574161 0.612999 -0.372239 2.41122 0.13745 4.15926C0.436577 5.18535 1.02835 5.6683 1.92879 6.16573L1.92814 13.5072C1.92755 14.0421 1.83345 14.5618 2.24205 14.9774C2.70301 15.4465 3.502 15.4676 3.96893 14.9923C4.31176 14.6434 4.27774 14.1793 4.27796 13.7272L4.2776 9.34676V6.16573C4.58386 6.084 4.85313 5.89791 5.11023 5.71939C6.01956 6.18568 7.04069 6.75974 7.92234 7.2745L8.8302 7.81123C9.27303 8.07374 9.74769 8.41739 10.2897 8.27468C11.1754 8.04157 11.5233 6.93878 10.7849 6.31034C10.6089 6.16049 10.3915 6.05249 10.1921 5.93728L9.31673 5.42711C8.32423 4.83747 7.34651 4.21814 6.34105 3.65076Z" fill="white"/>
<path d="M21.9999 6.21343C22.2344 6.0777 22.4766 5.94597 22.6958 5.7863C25.0247 4.09088 24.0738 0.503495 21.1179 0.0538398C19.0385 -0.178429 17.2486 1.73973 17.6354 3.81934L5.49539 17.4988C5.28497 17.735 5.06502 17.9675 4.87747 18.2226C3.40092 17.2448 1.30076 17.6684 0.409714 19.2415C-0.448556 20.7567 0.0882997 22.7504 1.62057 23.5972C4.06501 24.9479 6.99234 22.6846 6.20501 20.0307C6.69161 19.557 7.13385 19.0337 7.58979 18.5304L16.458 8.7308C17.2981 7.79394 18.1437 6.84492 19.0228 5.94597L19.5949 6.21343L19.5953 14.2773C19.5953 15.4698 19.5807 16.6637 19.5949 17.8561C19.2898 17.8911 19.0764 18.0563 18.8291 18.2226C17.8262 17.6815 16.7912 17.0716 15.8054 16.4985C15.3546 16.2368 14.6277 15.7565 14.1572 15.5979C12.9849 15.2016 12.1286 16.8314 12.9948 17.585C13.3196 17.8674 13.7573 18.0628 14.1299 18.2823C15.2745 18.9558 16.4453 19.5864 17.5931 20.2549C17.2632 24.3031 22.2927 25.1994 23.6572 22.1711C24.395 20.5333 23.6408 18.5832 21.9999 17.8561V7.39526C21.9995 7.00598 21.9679 6.59995 21.9999 6.21343Z" fill="white"/>
<path d="M21.9999 6.21343C22.2344 6.0777 22.4766 5.94597 22.6958 5.7863C25.0247 4.09088 24.0738 0.503495 21.1179 0.0538398C19.0385 -0.178429 17.2486 1.73973 17.6354 3.81934L5.49539 17.4988C5.28497 17.735 5.06502 17.9675 4.87747 18.2226C3.40092 17.2448 1.30076 17.6684 0.409714 19.2415C-0.448556 20.7567 0.0882997 22.7504 1.62057 23.5972C4.06501 24.9479 6.99234 22.6846 6.20501 20.0307C6.69161 19.557 7.13385 19.0337 7.58979 18.5304L16.458 8.7308C17.2981 7.79394 18.1437 6.84492 19.0228 5.94597L19.5949 6.21343L19.5953 14.2773C19.5953 15.4698 19.5807 16.6637 19.5949 17.8561C19.2898 17.8911 19.0764 18.0563 18.8291 18.2226C17.8262 17.6815 16.7912 17.0716 15.8054 16.4985C15.3546 16.2368 14.6277 15.7565 14.1572 15.5979C12.9849 15.2016 12.1286 16.8314 12.9948 17.585C13.3196 17.8674 13.7573 18.0628 14.1299 18.2823C15.2745 18.9558 16.4453 19.5864 17.5931 20.2549C17.2632 24.3031 22.2927 25.1994 23.6572 22.1711C24.395 20.5333 23.6408 18.5832 21.9999 17.8561V7.39526C21.9995 7.00598 21.9679 6.59995 21.9999 6.21343Z" fill="white"/>
<path d="M6.34105 3.65076C6.42765 1.92237 5.32327 0.0737165 3.454 0.0538118C3.16784 -0.0623773 2.62595 0.0337998 2.33739 0.115238C0.574161 0.612999 -0.372239 2.41122 0.13745 4.15926C0.436577 5.18535 1.02835 5.6683 1.92879 6.16573L1.92814 13.5072C1.92755 14.0421 1.83345 14.5618 2.24205 14.9774C2.70301 15.4465 3.502 15.4676 3.96893 14.9923C4.31176 14.6434 4.27774 14.1793 4.27796 13.7272L4.2776 9.34676V6.16573C4.58386 6.084 4.85313 5.89791 5.11023 5.71939C6.01956 6.18568 7.04069 6.75974 7.92234 7.2745L8.8302 7.81123C9.27303 8.07374 9.74769 8.41739 10.2897 8.27468C11.1754 8.04157 11.5233 6.93878 10.7849 6.31034C10.6089 6.16049 10.3915 6.05249 10.1921 5.93728L9.31673 5.42711C8.32423 4.83747 7.34651 4.21814 6.34105 3.65076Z" fill="white"/>
<path d="M38.4055 9.00781C38.3459 8.44957 38.0945 8.01491 37.6513 7.70384C37.2124 7.39276 36.6413 7.23722 35.9382 7.23722C35.4439 7.23722 35.0199 7.31179 34.6662 7.46094C34.3125 7.61008 34.0419 7.8125 33.8544 8.06818C33.6669 8.32386 33.571 8.61577 33.5668 8.94389C33.5668 9.21662 33.6286 9.45312 33.7521 9.65341C33.88 9.85369 34.0526 10.0241 34.2699 10.1648C34.4872 10.3011 34.728 10.4162 34.9922 10.5099C35.2564 10.6037 35.5227 10.6825 35.7912 10.7464L37.0185 11.0533C37.5128 11.1683 37.9879 11.3239 38.4439 11.5199C38.9041 11.7159 39.3153 11.9631 39.6776 12.2614C40.044 12.5597 40.3338 12.9197 40.5469 13.3416C40.7599 13.7635 40.8665 14.2578 40.8665 14.8246C40.8665 15.5916 40.6705 16.267 40.2784 16.8509C39.8864 17.4304 39.3196 17.8842 38.5781 18.2124C37.8409 18.5362 36.9482 18.6982 35.8999 18.6982C34.8814 18.6982 33.9972 18.5405 33.2472 18.2251C32.5014 17.9098 31.9176 17.4496 31.4957 16.8445C31.0781 16.2393 30.8523 15.5021 30.8182 14.6328H33.1513C33.1854 15.0888 33.326 15.468 33.5732 15.7706C33.8203 16.0732 34.142 16.299 34.5384 16.4482C34.9389 16.5973 35.3864 16.6719 35.8807 16.6719C36.3963 16.6719 36.848 16.5952 37.2358 16.4418C37.6278 16.2841 37.9347 16.0668 38.1562 15.7898C38.3778 15.5085 38.4908 15.1804 38.495 14.8054C38.4908 14.4645 38.3906 14.1832 38.1946 13.9616C37.9986 13.7358 37.7237 13.5483 37.37 13.3991C37.0206 13.2457 36.6115 13.1094 36.1428 12.9901L34.6534 12.6065C33.5753 12.3295 32.723 11.9098 32.0966 11.3473C31.4744 10.7805 31.1634 10.0284 31.1634 9.09091C31.1634 8.3196 31.3722 7.64418 31.7898 7.06463C32.2116 6.48509 32.7848 6.03551 33.5092 5.71591C34.2337 5.39204 35.054 5.23011 35.9702 5.23011C36.8991 5.23011 37.7131 5.39204 38.4119 5.71591C39.1151 6.03551 39.6669 6.48082 40.0675 7.05185C40.468 7.61861 40.6747 8.2706 40.6875 9.00781H38.4055ZM47.7811 8.68182V10.4716H42.1369V8.68182H47.7811ZM43.5304 6.32955H45.8443V15.5469C45.8443 15.858 45.8912 16.0966 45.9849 16.2628C46.0829 16.4247 46.2108 16.5355 46.3684 16.5952C46.5261 16.6548 46.7008 16.6847 46.8926 16.6847C47.0375 16.6847 47.1696 16.674 47.2889 16.6527C47.4125 16.6314 47.5062 16.6122 47.5701 16.5952L47.9601 18.4041C47.8365 18.4467 47.6596 18.4936 47.4295 18.5447C47.2037 18.5959 46.9267 18.6257 46.5985 18.6342C46.019 18.6513 45.497 18.5639 45.0325 18.3722C44.568 18.1761 44.1994 17.8736 43.9267 17.4645C43.6582 17.0554 43.5261 16.544 43.5304 15.9304V6.32955ZM52.5415 18.6982C51.9194 18.6982 51.359 18.5874 50.8604 18.3658C50.3661 18.1399 49.9741 17.8075 49.6843 17.3686C49.3988 16.9297 49.256 16.3885 49.256 15.745C49.256 15.1911 49.3583 14.733 49.5629 14.3707C49.7674 14.0085 50.0465 13.7188 50.4002 13.5014C50.7539 13.2841 51.1523 13.12 51.5955 13.0092C52.043 12.8942 52.5053 12.8111 52.9826 12.7599C53.5579 12.7003 54.0245 12.647 54.3825 12.6001C54.7404 12.549 55.0004 12.4723 55.1623 12.37C55.3285 12.2635 55.4116 12.0994 55.4116 11.8778V11.8395C55.4116 11.358 55.2688 10.9851 54.9833 10.7209C54.6978 10.4567 54.2866 10.3246 53.7496 10.3246C53.1829 10.3246 52.7333 10.4482 52.4009 10.6953C52.0728 10.9425 51.8512 11.2344 51.7362 11.571L49.5756 11.2642C49.7461 10.6676 50.0273 10.169 50.4194 9.76847C50.8114 9.36364 51.2908 9.06108 51.8576 8.8608C52.4244 8.65625 53.0508 8.55398 53.7369 8.55398C54.2099 8.55398 54.6808 8.60938 55.1495 8.72017C55.6183 8.83097 56.0465 9.0142 56.4343 9.26989C56.8221 9.52131 57.1332 9.86435 57.3675 10.299C57.6062 10.7337 57.7255 11.277 57.7255 11.929V18.5H55.5011V17.1513H55.4244C55.2837 17.424 55.0856 17.6797 54.8299 17.9183C54.5785 18.1527 54.261 18.3423 53.8775 18.4872C53.4982 18.6278 53.0529 18.6982 52.5415 18.6982ZM53.1424 16.9979C53.6069 16.9979 54.0096 16.9062 54.3505 16.723C54.6914 16.5355 54.9535 16.2884 55.1367 15.9815C55.3242 15.6747 55.418 15.3402 55.418 14.978V13.821C55.3455 13.8807 55.2219 13.9361 55.0472 13.9872C54.8768 14.0384 54.685 14.0831 54.4719 14.1214C54.2589 14.1598 54.0479 14.1939 53.8391 14.2237C53.6303 14.2536 53.4492 14.2791 53.2958 14.3004C52.9506 14.3473 52.6417 14.424 52.369 14.5305C52.0962 14.6371 51.881 14.7862 51.7234 14.978C51.5657 15.1655 51.4869 15.4084 51.4869 15.7067C51.4869 16.1328 51.6424 16.4545 51.9535 16.6719C52.2646 16.8892 52.6609 16.9979 53.1424 16.9979ZM60.1545 18.5V5.40909H62.4684V10.3054H62.5643C62.6836 10.0668 62.8519 9.81321 63.0692 9.54474C63.2866 9.27202 63.5806 9.03977 63.9513 8.84801C64.3221 8.65199 64.7951 8.55398 65.3704 8.55398C66.1289 8.55398 66.8129 8.74787 67.4222 9.13565C68.0359 9.51918 68.5217 10.0881 68.8796 10.8423C69.2418 11.5923 69.4229 12.5128 69.4229 13.6037C69.4229 14.6818 69.2461 15.598 68.8924 16.3523C68.5387 17.1065 68.0572 17.6818 67.4478 18.0781C66.8384 18.4744 66.1481 18.6726 65.3768 18.6726C64.8143 18.6726 64.3477 18.5788 63.9769 18.3913C63.6062 18.2038 63.3079 17.978 63.082 17.7138C62.8604 17.4453 62.6879 17.1918 62.5643 16.9531H62.43V18.5H60.1545ZM62.4237 13.5909C62.4237 14.2259 62.5131 14.782 62.6921 15.2592C62.8754 15.7365 63.1374 16.1094 63.4783 16.3778C63.8235 16.642 64.2411 16.7741 64.7312 16.7741C65.2425 16.7741 65.6708 16.6378 66.016 16.3651C66.3612 16.0881 66.6211 15.7109 66.7958 15.2337C66.9748 14.7521 67.0643 14.2045 67.0643 13.5909C67.0643 12.9815 66.9769 12.4403 66.8022 11.9673C66.6275 11.4943 66.3675 11.1236 66.0224 10.8551C65.6772 10.5866 65.2468 10.4524 64.7312 10.4524C64.2369 10.4524 63.8171 10.5824 63.4719 10.8423C63.1268 11.1023 62.8647 11.4666 62.6857 11.9354C62.511 12.4041 62.4237 12.956 62.4237 13.5909ZM73.704 5.40909V18.5H71.3901V5.40909H73.704ZM80.43 18.6918C79.4457 18.6918 78.5955 18.4872 77.8796 18.0781C77.168 17.6648 76.6204 17.081 76.2369 16.3267C75.8533 15.5682 75.6616 14.6754 75.6616 13.6484C75.6616 12.6385 75.8533 11.7521 76.2369 10.9893C76.6246 10.2223 77.1658 9.62571 77.8604 9.19957C78.555 8.76918 79.3711 8.55398 80.3086 8.55398C80.9137 8.55398 81.4847 8.65199 82.0217 8.84801C82.5629 9.03977 83.0401 9.33807 83.4535 9.7429C83.8711 10.1477 84.1992 10.6634 84.4379 11.2898C84.6765 11.9119 84.7958 12.6534 84.7958 13.5142V14.2237H76.7482V12.6641H82.5778C82.5735 12.2209 82.4776 11.8267 82.2901 11.4815C82.1026 11.1321 81.8406 10.8572 81.5039 10.657C81.1715 10.4567 80.7837 10.3565 80.3406 10.3565C79.8675 10.3565 79.4521 10.4716 79.0941 10.7017C78.7362 10.9276 78.457 11.2259 78.2567 11.5966C78.0607 11.9631 77.9606 12.3658 77.9563 12.8047V14.1662C77.9563 14.7372 78.0607 15.2273 78.2695 15.6364C78.4783 16.0412 78.7702 16.3523 79.1452 16.5696C79.5202 16.7827 79.9592 16.8892 80.462 16.8892C80.7987 16.8892 81.1033 16.8423 81.3761 16.7486C81.6488 16.6506 81.8853 16.5078 82.0856 16.3203C82.2859 16.1328 82.4371 15.9006 82.5394 15.6236L84.6999 15.8665C84.5636 16.4375 84.3036 16.9361 83.9201 17.3622C83.5408 17.7841 83.055 18.1122 82.4627 18.3466C81.8704 18.5767 81.1928 18.6918 80.43 18.6918Z" fill="white"/>
<path d="M95.7566 18.5H91.3205V5.40909H95.8461C97.1458 5.40909 98.2623 5.67116 99.1955 6.19531C100.133 6.7152 100.853 7.46307 101.356 8.43892C101.859 9.41477 102.11 10.5824 102.11 11.9418C102.11 13.3054 101.857 14.4773 101.35 15.4574C100.847 16.4375 100.12 17.1896 99.1699 17.7138C98.2239 18.2379 97.0861 18.5 95.7566 18.5ZM93.6919 16.4482H95.6415C96.5534 16.4482 97.3141 16.282 97.9235 15.9496C98.5328 15.6129 98.9909 15.1122 99.2978 14.4474C99.6046 13.7784 99.758 12.9432 99.758 11.9418C99.758 10.9403 99.6046 10.1094 99.2978 9.44886C98.9909 8.78409 98.5371 8.28764 97.9363 7.95952C97.3397 7.62713 96.5982 7.46094 95.7118 7.46094H93.6919V16.4482ZM104.261 18.5V8.68182H106.575V18.5H104.261ZM105.425 7.28835C105.058 7.28835 104.743 7.1669 104.479 6.92401C104.214 6.67685 104.082 6.38068 104.082 6.03551C104.082 5.68608 104.214 5.38991 104.479 5.14702C104.743 4.89986 105.058 4.77628 105.425 4.77628C105.795 4.77628 106.111 4.89986 106.371 5.14702C106.635 5.38991 106.767 5.68608 106.767 6.03551C106.767 6.38068 106.635 6.67685 106.371 6.92401C106.111 7.1669 105.795 7.28835 105.425 7.28835ZM113.928 8.68182V10.4716H108.124V8.68182H113.928ZM109.575 18.5V7.75497C109.575 7.09446 109.711 6.54474 109.984 6.10582C110.261 5.6669 110.631 5.33878 111.096 5.12145C111.56 4.90412 112.076 4.79545 112.643 4.79545C113.043 4.79545 113.399 4.82741 113.71 4.89134C114.021 4.95526 114.251 5.01278 114.401 5.06392L113.94 6.85369C113.842 6.82386 113.719 6.79403 113.57 6.7642C113.42 6.73011 113.254 6.71307 113.071 6.71307C112.641 6.71307 112.336 6.81747 112.157 7.02628C111.982 7.23082 111.895 7.52486 111.895 7.90838V18.5H109.575ZM120.713 8.68182V10.4716H114.909V8.68182H120.713ZM116.36 18.5V7.75497C116.36 7.09446 116.496 6.54474 116.769 6.10582C117.046 5.6669 117.417 5.33878 117.881 5.12145C118.346 4.90412 118.861 4.79545 119.428 4.79545C119.828 4.79545 120.184 4.82741 120.495 4.89134C120.806 4.95526 121.037 5.01278 121.186 5.06392L120.725 6.85369C120.627 6.82386 120.504 6.79403 120.355 6.7642C120.206 6.73011 120.039 6.71307 119.856 6.71307C119.426 6.71307 119.121 6.81747 118.942 7.02628C118.767 7.23082 118.68 7.52486 118.68 7.90838V18.5H116.36ZM128.783 14.3707V8.68182H131.097V18.5H128.853V16.755H128.751C128.529 17.3047 128.165 17.7543 127.658 18.1037C127.155 18.4531 126.535 18.6278 125.798 18.6278C125.154 18.6278 124.585 18.4851 124.091 18.1996C123.601 17.9098 123.217 17.4901 122.94 16.9403C122.663 16.3864 122.525 15.7173 122.525 14.9332V8.68182H124.839V14.5753C124.839 15.1974 125.009 15.6918 125.35 16.0582C125.691 16.4247 126.138 16.608 126.692 16.608C127.033 16.608 127.364 16.5249 127.683 16.3587C128.003 16.1925 128.265 15.9453 128.469 15.6172C128.678 15.2848 128.783 14.8693 128.783 14.3707ZM141.236 11.277L139.127 11.5071C139.067 11.294 138.963 11.0938 138.813 10.9062C138.669 10.7188 138.472 10.5675 138.225 10.4524C137.978 10.3374 137.676 10.2798 137.318 10.2798C136.836 10.2798 136.431 10.3842 136.103 10.593C135.779 10.8018 135.619 11.0724 135.624 11.4048C135.619 11.6903 135.724 11.9226 135.937 12.1016C136.154 12.2805 136.512 12.4276 137.011 12.5426L138.686 12.9006C139.615 13.1009 140.305 13.4183 140.757 13.853C141.213 14.2876 141.443 14.8565 141.447 15.5597C141.443 16.1776 141.262 16.723 140.904 17.196C140.55 17.6648 140.058 18.0312 139.427 18.2955C138.796 18.5597 138.072 18.6918 137.254 18.6918C136.052 18.6918 135.085 18.4403 134.352 17.9375C133.619 17.4304 133.182 16.7251 133.041 15.8217L135.298 15.6044C135.4 16.0476 135.617 16.3821 135.95 16.608C136.282 16.8338 136.715 16.9467 137.247 16.9467C137.797 16.9467 138.238 16.8338 138.57 16.608C138.907 16.3821 139.075 16.103 139.075 15.7706C139.075 15.4893 138.967 15.2571 138.749 15.0739C138.536 14.8906 138.204 14.75 137.752 14.652L136.078 14.3004C135.136 14.1044 134.439 13.7741 133.987 13.3097C133.536 12.8409 133.312 12.2486 133.316 11.5327C133.312 10.9276 133.476 10.4034 133.808 9.96023C134.145 9.51278 134.612 9.16761 135.208 8.92472C135.809 8.67756 136.502 8.55398 137.286 8.55398C138.436 8.55398 139.342 8.79901 140.002 9.28906C140.667 9.77912 141.078 10.4418 141.236 11.277ZM143.355 18.5V8.68182H145.669V18.5H143.355ZM144.518 7.28835C144.152 7.28835 143.836 7.1669 143.572 6.92401C143.308 6.67685 143.176 6.38068 143.176 6.03551C143.176 5.68608 143.308 5.38991 143.572 5.14702C143.836 4.89986 144.152 4.77628 144.518 4.77628C144.889 4.77628 145.204 4.89986 145.464 5.14702C145.729 5.38991 145.861 5.68608 145.861 6.03551C145.861 6.38068 145.729 6.67685 145.464 6.92401C145.204 7.1669 144.889 7.28835 144.518 7.28835ZM152.331 18.6918C151.372 18.6918 150.541 18.4808 149.838 18.0589C149.135 17.6371 148.589 17.0469 148.202 16.2884C147.818 15.5298 147.626 14.6435 147.626 13.6293C147.626 12.6151 147.818 11.7266 148.202 10.9638C148.589 10.201 149.135 9.60866 149.838 9.18679C150.541 8.76491 151.372 8.55398 152.331 8.55398C153.29 8.55398 154.121 8.76491 154.824 9.18679C155.527 9.60866 156.07 10.201 156.454 10.9638C156.842 11.7266 157.036 12.6151 157.036 13.6293C157.036 14.6435 156.842 15.5298 156.454 16.2884C156.07 17.0469 155.527 17.6371 154.824 18.0589C154.121 18.4808 153.29 18.6918 152.331 18.6918ZM152.344 16.8381C152.864 16.8381 153.298 16.6953 153.648 16.4098C153.997 16.12 154.257 15.7322 154.428 15.2464C154.602 14.7607 154.69 14.2195 154.69 13.6229C154.69 13.022 154.602 12.4787 154.428 11.9929C154.257 11.5028 153.997 11.1129 153.648 10.8232C153.298 10.5334 152.864 10.3885 152.344 10.3885C151.811 10.3885 151.368 10.5334 151.014 10.8232C150.665 11.1129 150.403 11.5028 150.228 11.9929C150.058 12.4787 149.972 13.022 149.972 13.6229C149.972 14.2195 150.058 14.7607 150.228 15.2464C150.403 15.7322 150.665 16.12 151.014 16.4098C151.368 16.6953 151.811 16.8381 152.344 16.8381ZM161.313 12.7472V18.5H158.999V8.68182H161.211V10.3501H161.326C161.552 9.80043 161.912 9.36364 162.406 9.03977C162.905 8.71591 163.521 8.55398 164.254 8.55398C164.931 8.55398 165.521 8.69886 166.024 8.98864C166.531 9.27841 166.923 9.69815 167.2 10.2479C167.482 10.7976 167.62 11.4645 167.616 12.2486V18.5H165.302V12.6065C165.302 11.9503 165.132 11.4368 164.791 11.0661C164.454 10.6953 163.987 10.5099 163.391 10.5099C162.986 10.5099 162.626 10.5994 162.311 10.7784C161.999 10.9531 161.754 11.2067 161.575 11.5391C161.401 11.8714 161.313 12.2741 161.313 12.7472Z" fill="#005FF9"/>
</svg>
