<svg width="48" height="48" viewBox="0 0 48 48" fill="none" xmlns="http://www.w3.org/2000/svg">
<rect width="48" height="48" rx="6" fill="#005FF9"/>
<path d="M31.418 26.1445H26.703L30.037 22.8106C30.6539 22.1937 30.6539 21.1901 30.037 20.5732L27.4268 17.963C27.1279 17.6642 26.7307 17.4997 26.3081 17.4997C25.8855 17.4997 25.4882 17.6642 25.1894 17.963L21.8555 21.297V16.582C21.8555 15.7097 21.1458 15 20.2734 15H16.582C15.7097 15 15 15.7097 15 16.582V33H31.418C32.2903 33 33 32.2903 33 31.418V27.7266C33 26.8542 32.2903 26.1445 31.418 26.1445ZM24.6842 26.6719L21.8555 29.5006V23.8432L24.6842 26.6719ZM22.074 22.5701L24.8166 19.8274L28.1726 23.1834L25.4299 25.926L22.074 22.5701ZM29.8359 27.1992V31.9453H25.9572V27.1992H29.8359ZM26.3081 18.5544C26.449 18.5544 26.5814 18.6091 26.6811 18.7087L29.2913 21.3189C29.3909 21.4186 29.4456 21.551 29.4456 21.6919C29.4456 21.8328 29.3909 21.9652 29.2913 22.0648L28.9183 22.4377L25.5623 19.0817L25.9352 18.7087C26.0348 18.6091 26.1672 18.5544 26.3081 18.5544ZM20.8008 31.9453H16.0547V16.582C16.0547 16.2913 16.2913 16.0547 16.582 16.0547H20.2734C20.5642 16.0547 20.8008 16.2913 20.8008 16.582V31.9453ZM21.8555 30.9921L24.9025 27.9451V31.9453H21.8555V30.9921ZM31.9453 31.418C31.9453 31.7087 31.7087 31.9453 31.418 31.9453H30.8906V27.1992H31.418C31.7087 27.1992 31.9453 27.4358 31.9453 27.7266V31.418Z" fill="white"/>
</svg>
