<svg width="48" height="48" viewBox="0 0 48 48" fill="none" xmlns="http://www.w3.org/2000/svg">
<rect width="48" height="48" rx="6" fill="#005FF9"/>
<path d="M24 15V32.25M24 32.25C22.528 32.25 21.118 32.515 19.815 33M24 32.25C25.472 32.25 26.882 32.515 28.185 33M30.75 16.97C28.5137 16.6561 26.2582 16.4991 24 16.5C21.709 16.5 19.455 16.66 17.25 16.97M30.75 16.97C31.76 17.113 32.76 17.287 33.75 17.49M30.75 16.97L33.37 27.696C33.492 28.195 33.264 28.724 32.781 28.898C32.1294 29.1319 31.4423 29.2509 30.75 29.25C30.0577 29.2509 29.3706 29.1319 28.719 28.898C28.236 28.724 28.008 28.195 28.129 27.696L30.75 16.971V16.97ZM17.25 16.97C16.24 17.113 15.24 17.287 14.25 17.49M17.25 16.97L19.87 27.696C19.992 28.195 19.764 28.724 19.281 28.898C18.6294 29.1318 17.9423 29.2509 17.25 29.25C16.5577 29.2509 15.8706 29.1318 15.219 28.898C14.736 28.724 14.508 28.195 14.629 27.696L17.25 16.971V16.97Z" stroke="white" stroke-width="1.5" stroke-linecap="round" stroke-linejoin="round"/>
</svg>
