<svg width="48" height="48" viewBox="0 0 48 48" fill="none" xmlns="http://www.w3.org/2000/svg">
<rect width="48" height="48" rx="6" fill="#005FF9"/>
<g clip-path="url(#clip0_557_446)">
<path d="M23.906 15.406C18.9434 15.406 14.906 19.4434 14.906 24.406C14.906 29.3686 18.9434 33.406 23.906 33.406C28.8686 33.406 32.906 29.3686 32.906 24.406C32.906 19.4434 28.8686 15.406 23.906 15.406ZM23.906 31.9984C19.7195 31.9984 16.3136 28.5925 16.3136 24.406C16.3136 20.2195 19.7195 16.8136 23.906 16.8136C28.0925 16.8136 31.4984 20.2195 31.4984 24.406C31.4984 28.5925 28.0925 31.9984 23.906 31.9984Z" fill="white"/>
<path d="M19.5731 24.7705L21.1875 23.7633C21.4623 23.5918 21.3927 23.1738 21.0772 23.1008L20.4568 22.9571C21.0123 21.56 22.3772 20.5918 23.9457 20.5918C25.4868 20.5918 26.8546 21.5154 27.4303 22.9447C27.5754 23.3052 27.9855 23.4797 28.3461 23.3346C28.7066 23.1894 28.8812 22.7794 28.736 22.4188C27.9446 20.4539 26.0643 19.1841 23.9457 19.1841C21.7154 19.1841 19.7843 20.6083 19.074 22.6367L18.4554 22.4934C18.1399 22.4203 17.8936 22.7652 18.0649 23.04L19.0721 24.6544C19.1785 24.8248 19.4026 24.8768 19.5731 24.7705Z" fill="white"/>
<path d="M29.7507 26.0538L28.7743 24.4204C28.6713 24.2481 28.4481 24.1919 28.2757 24.295L26.6424 25.2713C26.3645 25.4375 26.4261 25.8568 26.7402 25.9358L27.3643 26.0929C26.7439 27.3922 25.4128 28.2468 23.9094 28.2195C22.4293 28.1927 21.0987 27.2948 20.5196 25.9319C20.3676 25.5741 19.9544 25.4072 19.5966 25.5593C19.2389 25.7113 19.0721 26.1245 19.224 26.4823C20.02 28.3557 21.8492 29.5901 23.8838 29.627C23.916 29.6275 23.9478 29.6278 23.9798 29.6278C26.1077 29.6278 27.9668 28.3452 28.7489 26.4415L29.3497 26.5928C29.6639 26.6719 29.9169 26.3318 29.7507 26.0538Z" fill="white"/>
</g>
<defs>
<clipPath id="clip0_557_446">
<rect width="18" height="18" fill="white" transform="translate(14.906 15.406)"/>
</clipPath>
</defs>
</svg>
