<svg width="9" height="11" viewBox="0 0 9 11" fill="none" xmlns="http://www.w3.org/2000/svg">
<path d="M8.5 4H7.5V3C7.5 2.20435 7.18393 1.44129 6.62132 0.87868C6.05871 0.316071 5.29565 0 4.5 0C3.70435 0 2.94129 0.316071 2.37868 0.87868C1.81607 1.44129 1.5 2.20435 1.5 3V4H0.5C0.367392 4 0.240215 4.05268 0.146447 4.14645C0.0526784 4.24022 0 4.36739 0 4.5V10.5C0 10.6326 0.0526784 10.7598 0.146447 10.8536C0.240215 10.9473 0.367392 11 0.5 11H8.5C8.63261 11 8.75979 10.9473 8.85355 10.8536C8.94732 10.7598 9 10.6326 9 10.5V4.5C9 4.36739 8.94732 4.24022 8.85355 4.14645C8.75979 4.05268 8.63261 4 8.5 4ZM2.5 3C2.5 2.46957 2.71071 1.96086 3.08579 1.58579C3.46086 1.21071 3.96957 1 4.5 1C5.03043 1 5.53914 1.21071 5.91421 1.58579C6.28929 1.96086 6.5 2.46957 6.5 3V4H2.5V3Z" fill="#202020"/>
</svg>
